<?xml version="1.0" encoding="iso-8859-1"?>
<!-- Generator: Adobe Illustrator 19.0.0, SVG Export Plug-In . SVG Version: 6.00 Build 0)  -->
<svg version="1.1" id="Layer_1" xmlns="http://www.w3.org/2000/svg" xmlns:xlink="http://www.w3.org/1999/xlink" x="0px" y="0px"
	 viewBox="0 0 511.999 511.999" style="enable-background:new 0 0 511.999 511.999;" xml:space="preserve">
<g>
	<path style="fill:#2F9B0B;" d="M241.368,197.309l16.541,27.189c-0.156,1.725-0.347,3.462-0.575,5.186l-0.144,1.042h-55.24
		c-22.925-23.272-36.424-54.618-37.202-87.867l-1.821-77.399l55.779,53.683c1.353,1.294,2.671,2.623,3.941,3.977
		C221.294,148.836,227.63,174.731,241.368,197.309z"/>
	<path style="fill:#2F9B0B;" d="M360.485,65.46l-1.821,77.399c-0.779,33.25-14.277,64.595-37.214,87.867h-55.229l-0.144-1.042
		c-0.228-1.737-0.419-3.473-0.575-5.198l16.541-27.177c13.738-22.578,20.062-48.461,18.709-74.189
		c1.282-1.353,2.599-2.683,3.953-3.977L360.485,65.46z"/>
</g>
<path style="fill:#31AF0E;" d="M300.753,123.12c1.353,25.728-4.971,51.611-18.709,74.189l-16.541,27.177l-3.797,6.24l-3.797-6.228
	l-16.541-27.189c-13.738-22.578-20.074-48.473-18.721-74.189c0.755-14.445,3.929-28.842,9.582-42.556l29.477-71.578l29.477,71.578
	C296.824,94.29,300.01,108.675,300.753,123.12z"/>
<g>
	<path style="fill:#F7B239;" d="M345.357,250.824v3.33c0,11.103-9.007,20.098-20.11,20.098h-3.21H189.961h-3.21
		c-11.103,0-20.098-8.995-20.098-20.098v-3.33c0-11.103,8.995-20.098,20.098-20.098h15.2h55.24h4.516h4.516h55.229h3.797
		C336.35,230.726,345.357,239.721,345.357,250.824z"/>
	<path style="fill:#F7B239;" d="M371.181,317.12c10.145,8.851,13.666,23.105,8.827,35.669H132.001
		c-4.851-12.564-1.318-26.818,8.827-35.669l49.132-42.868h132.077L371.181,317.12z"/>
	<polygon style="fill:#F7B239;" points="380.008,352.789 322.037,503.012 189.96,503.012 132.001,352.789 	"/>
</g>
<g>
	<path style="fill:#333333;" d="M205.783,327.505c4.96,0,8.983-4.024,8.983-8.983c0-4.959-4.023-8.983-8.983-8.983
		c-4.969,0-8.983,4.024-8.983,8.983C196.8,323.48,200.812,327.505,205.783,327.505z"/>
	<path style="fill:#333333;" d="M306.227,327.505c4.959,0,8.983-4.024,8.983-8.983c0-4.959-4.024-8.983-8.983-8.983
		c-4.97,0-8.983,4.024-8.983,8.983C297.243,323.48,301.257,327.505,306.227,327.505z"/>
	<circle style="fill:#333333;" cx="230.893" cy="318.519" r="8.983"/>
	<path style="fill:#333333;" d="M256.005,327.505c4.959,0,8.983-4.024,8.983-8.983c0-4.959-4.024-8.983-8.983-8.983
		c-4.971,0-8.983,4.024-8.983,8.983C247.022,323.48,251.034,327.505,256.005,327.505z"/>
	<circle style="fill:#333333;" cx="281.115" cy="318.519" r="8.983"/>
	<path style="fill:#333333;" d="M281.11,378.074c-4.96,0-8.983,4.024-8.983,8.983c0,4.971,4.023,8.983,8.983,8.983
		c4.959,0,8.983-4.012,8.983-8.983C290.093,382.099,286.068,378.074,281.11,378.074z"/>
	<path style="fill:#333333;" d="M306.227,378.074c-4.969,0-8.983,4.024-8.983,8.983c0,4.971,4.014,8.983,8.983,8.983
		c4.959,0,8.983-4.012,8.983-8.983C315.21,382.099,311.185,378.074,306.227,378.074z"/>
	<path style="fill:#333333;" d="M256.005,378.074c-4.971,0-8.983,4.024-8.983,8.983c0,4.971,4.012,8.983,8.983,8.983
		c4.959,0,8.983-4.012,8.983-8.983C264.988,382.099,260.964,378.074,256.005,378.074z"/>
	<path style="fill:#333333;" d="M230.889,378.074c-4.96,0-8.983,4.024-8.983,8.983c0,4.971,4.023,8.983,8.983,8.983
		c4.959,0,8.983-4.012,8.983-8.983C239.872,382.099,235.847,378.074,230.889,378.074z"/>
	<path style="fill:#333333;" d="M205.783,378.074c-4.969,0-8.983,4.024-8.983,8.983c0,4.971,4.014,8.983,8.983,8.983
		c4.96,0,8.983-4.012,8.983-8.983C214.766,382.099,210.742,378.074,205.783,378.074z"/>
	<path style="fill:#333333;" d="M383.556,494.034h-48.423l53.251-138.009c6.183-16.025,1.641-34.378-11.302-45.67l-36.273-31.644
		c8.123-5.165,13.53-14.239,13.53-24.559v-3.324c0-11.28-6.46-21.075-15.87-25.898c18.215-23.348,28.469-51.881,29.171-81.861
		l1.828-77.393c0.085-3.64-2.033-6.971-5.365-8.436c-3.335-1.466-7.22-0.774-9.844,1.75l-46.806,45.032
		c-1.725-9.136-4.372-18.145-7.966-26.874L270.013,5.564C268.626,2.197,265.345,0,261.705,0s-6.921,2.197-8.308,5.564
		l-29.474,71.584c-3.594,8.729-6.242,17.738-7.966,26.874l-46.805-45.032c-2.623-2.524-6.51-3.216-9.844-1.75
		c-3.332,1.465-5.451,4.796-5.365,8.436l1.828,77.391c0.674,28.749,10.126,56.166,26.96,78.957
		c-14.142,1.966-25.067,14.129-25.067,28.804v3.324c0,10.319,5.405,19.393,13.529,24.558l-36.274,31.645
		c-12.943,11.292-17.485,29.646-11.302,45.669l53.251,138.01h-48.423c-4.962,0-8.983,4.022-8.983,8.983
		c0,4.961,4.021,8.983,8.983,8.983h61.517h132.075h61.517c4.962,0,8.983-4.022,8.983-8.983
		C392.537,498.055,388.517,494.034,383.556,494.034z M310.929,125.612l40.064-38.546l-1.314,55.581
		c-0.692,29.567-12.078,57.496-32.102,79.093h-39.888l12.03-19.764c13.906-22.847,20.686-49.078,20.101-75.271
		C310.19,126.338,310.557,125.969,310.929,125.612z M240.536,83.989l21.169-51.411l21.169,51.411
		c14.561,35.363,11.383,75.977-8.5,108.645l-12.669,20.812l-12.669-20.812C229.151,159.966,225.973,119.352,240.536,83.989z
		 M172.418,87.065l40.066,38.549c0.373,0.358,0.737,0.723,1.104,1.088c-0.586,26.194,6.194,52.426,20.101,75.273l12.03,19.764
		h-39.885c-20.024-21.597-31.411-49.526-32.103-79.095L172.418,87.065z M175.631,250.827c0-6.133,4.989-11.121,11.121-11.121h138.5
		c6.133,0,11.121,4.99,11.121,11.121v3.324c0,6.133-4.989,11.121-11.121,11.121h-3.214H189.964h-3.212
		c-6.133,0-11.121-4.99-11.121-11.121L175.631,250.827L175.631,250.827z M146.731,323.894l46.6-40.654h125.34l46.6,40.654
		c5.759,5.023,8.542,12.533,7.735,19.914h-234.01C138.189,336.427,140.972,328.917,146.731,323.894z M196.127,494.034
		l-51.033-132.26h221.815l-51.033,132.26H196.127z"/>
	<circle style="fill:#333333;" cx="331.336" cy="318.519" r="8.983"/>
	<circle style="fill:#333333;" cx="180.671" cy="318.519" r="8.983"/>
	<circle style="fill:#333333;" cx="180.671" cy="387.055" r="8.983"/>
	<circle style="fill:#333333;" cx="331.336" cy="387.055" r="8.983"/>
</g>
<g>
</g>
<g>
</g>
<g>
</g>
<g>
</g>
<g>
</g>
<g>
</g>
<g>
</g>
<g>
</g>
<g>
</g>
<g>
</g>
<g>
</g>
<g>
</g>
<g>
</g>
<g>
</g>
<g>
</g>
</svg>
